<svg width="48" height="58" viewBox="0 0 48 58" fill="none" xmlns="http://www.w3.org/2000/svg">
<path d="M45.7049 28.5823C47.5661 22.1858 46.9747 16.3278 46.9486 16.0815L46.9477 16.0761C46.9443 16.0447 46.9391 16.0135 46.9322 15.9826L46.9303 15.9756C46.9237 15.9481 46.9158 15.921 46.9066 15.8944C46.9034 15.8851 46.8997 15.8761 46.8962 15.8671C46.8848 15.8375 46.8719 15.8086 46.8574 15.7804C46.8473 15.761 46.8365 15.7419 46.8249 15.7233C46.8203 15.7158 46.8158 15.7083 46.811 15.7009C46.7956 15.6777 46.7791 15.6553 46.7615 15.6337C46.7597 15.6316 46.7582 15.6292 46.7564 15.627C46.7358 15.6023 46.7138 15.5789 46.6906 15.5567C46.6878 15.5541 46.6848 15.5518 46.6821 15.5492C46.6622 15.5307 46.6415 15.5132 46.62 15.4968C46.6122 15.4908 46.6039 15.4852 46.5957 15.4794C46.5784 15.4671 46.5607 15.4554 46.5425 15.4443C46.5376 15.4414 46.5332 15.4379 46.5283 15.4349C46.5227 15.4316 46.5167 15.4294 46.5109 15.4262C46.503 15.4219 46.4957 15.417 46.4876 15.4129C46.4777 15.4079 46.4675 15.4042 46.4575 15.3996C46.4467 15.3946 46.4358 15.3895 46.4248 15.385C46.4042 15.3766 46.3832 15.3691 46.362 15.3624C46.3538 15.3598 46.3457 15.3567 46.3375 15.3544C46.277 15.337 46.2147 15.3264 46.1519 15.3229C46.1459 15.3225 46.14 15.3228 46.134 15.3225C46.1094 15.3216 46.0847 15.3218 46.06 15.323C46.0505 15.3234 46.041 15.3243 46.0316 15.3251C45.9999 15.328 45.9684 15.3324 45.9371 15.3385C45.9154 15.343 45.8939 15.3483 45.8727 15.3544C45.8641 15.3567 45.8554 15.3588 45.8469 15.3615C45.8167 15.3709 45.7871 15.382 45.7581 15.3948C45.6745 15.4321 44.4877 15.9676 41.8517 17.4747C43.4623 10.9686 41.8237 6.14302 41.6122 5.56483C41.6098 5.55826 41.6066 5.55225 41.6041 5.5458C41.5891 5.50732 41.5711 5.47002 41.5505 5.43422C41.5371 5.41043 41.5224 5.3874 41.5065 5.36523C41.498 5.35333 41.4893 5.34162 41.4804 5.33011C41.4633 5.30886 41.4454 5.2883 41.4267 5.26848C41.3985 5.2395 41.3684 5.2124 41.3365 5.18738C41.315 5.1705 41.2926 5.15473 41.2695 5.14014C41.2558 5.13158 41.2419 5.12338 41.2278 5.11555C41.2212 5.11182 41.2151 5.10763 41.2083 5.10411C41.2046 5.10207 41.2006 5.10071 41.1968 5.09879C41.1824 5.09168 41.1678 5.08495 41.153 5.07863C41.1418 5.07375 41.1306 5.06866 41.1193 5.06424C41.1058 5.05903 41.092 5.05461 41.0782 5.05008C41.0655 5.04589 41.0529 5.04147 41.0401 5.03796C41.0271 5.03433 41.0138 5.03161 41.0006 5.02867C40.9871 5.02561 40.9737 5.02221 40.9601 5.01983C40.9463 5.01745 40.9322 5.01609 40.9183 5.01428C40.9054 5.0127 40.8925 5.01066 40.8796 5.00964C40.8637 5.00839 40.8477 5.00839 40.8319 5.00805C40.8208 5.00782 40.8097 5.00703 40.7986 5.00726C40.7818 5.0076 40.765 5.00918 40.7482 5.01043C40.7377 5.01122 40.7272 5.01156 40.7169 5.01281C40.7016 5.01462 40.6863 5.01757 40.671 5.02017C40.659 5.02221 40.6469 5.02391 40.6349 5.0264C40.6221 5.02923 40.6094 5.03297 40.5966 5.03637C40.5822 5.04022 40.5677 5.04385 40.5535 5.04838C40.5512 5.04917 40.5488 5.04951 40.5464 5.0503C40.0147 5.2268 35.5637 6.81375 31.5846 11.6288C28.9858 4.68837 25.1974 0.82718 24.5918 0.239703C24.585 0.233133 24.5776 0.227469 24.5706 0.221125C24.5585 0.210137 24.5465 0.199035 24.5337 0.188727C24.5236 0.18057 24.513 0.173094 24.5026 0.165504C24.4909 0.156895 24.4795 0.148285 24.4675 0.140242C24.4559 0.132539 24.444 0.125742 24.4322 0.118719C24.4204 0.111809 24.4088 0.104672 24.3967 0.0982148C24.3846 0.0917578 24.3721 0.086207 24.3596 0.0804297C24.3472 0.0745391 24.3347 0.0685352 24.3219 0.0633242C24.3096 0.0583398 24.2971 0.0541484 24.2845 0.0496172C24.2711 0.0448594 24.2578 0.039875 24.2441 0.0357969C24.2315 0.0320586 24.2187 0.0291133 24.2059 0.0259414C24.1921 0.022543 24.1784 0.0186914 24.1644 0.0159727C24.1499 0.0131406 24.1352 0.0114414 24.1207 0.00928906C24.1082 0.00747656 24.0957 0.00521094 24.0829 0.00396484C24.0579 0.00164304 24.0329 0.00039579 24.0078 0.000226563C24.0051 0.000339844 24.0026 0 23.9999 0C23.9973 0 23.9948 0.000339844 23.9922 0.000339844C23.9671 0.000511856 23.942 0.0017591 23.9171 0.00407812C23.9043 0.00532422 23.8918 0.00758984 23.8792 0.00940234C23.8646 0.0114414 23.85 0.0132539 23.8356 0.0160859C23.8215 0.0188047 23.8079 0.022543 23.794 0.0260547C23.7812 0.0292266 23.7684 0.0320586 23.7559 0.0359102C23.7422 0.0399883 23.7289 0.0449727 23.7154 0.0497305C23.7028 0.0541484 23.6904 0.0583398 23.678 0.0634375C23.6652 0.0686484 23.6529 0.0746524 23.6404 0.080543C23.628 0.0863203 23.6156 0.0919844 23.6034 0.0984414C23.5913 0.104785 23.5797 0.111922 23.5679 0.118945C23.556 0.125969 23.5441 0.132766 23.5326 0.140469C23.5205 0.148398 23.509 0.157121 23.4975 0.16573C23.487 0.173434 23.4765 0.180797 23.4664 0.188953C23.4536 0.199262 23.4416 0.210363 23.4295 0.221352C23.4225 0.227695 23.4151 0.233359 23.4083 0.23993C22.8027 0.827519 19.0142 4.6886 16.4155 11.629C12.4363 6.81398 7.98541 5.22702 7.45367 5.05053C7.45118 5.04974 7.44869 5.04929 7.44631 5.04849C7.43305 5.04419 7.41946 5.0409 7.40598 5.03728C7.39227 5.03354 7.37857 5.02957 7.36486 5.02652C7.35444 5.02425 7.34401 5.02289 7.33348 5.02108C7.31649 5.01802 7.29961 5.01485 7.28262 5.01292C7.27469 5.01202 7.26664 5.01179 7.2586 5.01111C7.23943 5.00923 7.2202 5.00802 7.20094 5.00748C7.19233 5.00737 7.18372 5.00794 7.17511 5.00805C7.15671 5.00809 7.13831 5.00869 7.11994 5.00986C7.10884 5.01077 7.09785 5.01258 7.08675 5.01383C7.07101 5.01564 7.05515 5.01734 7.03951 5.02006C7.02694 5.02221 7.01448 5.0255 7.0019 5.02822C6.98786 5.03139 6.9737 5.03422 6.95976 5.03807C6.9473 5.04158 6.93496 5.04589 6.9225 5.04996C6.90856 5.0545 6.89463 5.05891 6.88103 5.06424C6.86937 5.06877 6.85792 5.07398 6.84648 5.07897C6.83221 5.0852 6.81805 5.09143 6.80423 5.09845C6.80015 5.10049 6.79596 5.10196 6.792 5.10411C6.78486 5.10785 6.77829 5.11238 6.77127 5.11635C6.74644 5.13015 6.72236 5.14524 6.6991 5.16155C6.67625 5.1776 6.65414 5.19469 6.63284 5.21275C6.57064 5.26634 6.51643 5.32856 6.47186 5.39751C6.44209 5.4445 6.41672 5.49414 6.39608 5.5458C6.39358 5.55225 6.39041 5.55826 6.38803 5.56483C6.17654 6.14302 4.53793 10.9686 6.14844 17.4747C3.51239 15.9676 2.32554 15.4321 2.24205 15.3948L2.23933 15.3938C2.21143 15.3815 2.18288 15.3708 2.15381 15.3616C2.14452 15.3587 2.135 15.3565 2.1256 15.3538C2.10519 15.3479 2.08455 15.3429 2.06375 15.3386C2.03264 15.3325 2.00121 15.328 1.96961 15.3254C1.95942 15.3245 1.94933 15.3236 1.93925 15.323C1.91563 15.3218 1.89197 15.3217 1.86834 15.3225C1.86143 15.3228 1.8544 15.3225 1.84749 15.323C1.78513 15.3265 1.72335 15.337 1.6633 15.3543C1.6539 15.357 1.64472 15.3605 1.63532 15.3634C1.6154 15.3698 1.59571 15.3768 1.5763 15.3846C1.56429 15.3895 1.5524 15.395 1.54062 15.4005C1.53121 15.4048 1.5217 15.4083 1.51241 15.413C1.50493 15.4169 1.49814 15.4214 1.49077 15.4254C1.48454 15.4288 1.47797 15.4313 1.47185 15.4349C1.46642 15.4381 1.46166 15.4419 1.45633 15.4451C1.43935 15.4555 1.42273 15.4664 1.40649 15.478C1.39732 15.4844 1.38803 15.4906 1.37919 15.4974C1.35945 15.5127 1.3404 15.5288 1.3221 15.5457C1.31779 15.5497 1.31315 15.5533 1.30884 15.5573C1.28605 15.579 1.26453 15.602 1.24439 15.6262C1.24144 15.6298 1.23895 15.6336 1.236 15.6372C1.21962 15.6574 1.2042 15.6784 1.18978 15.7C1.18435 15.7081 1.17936 15.7166 1.17426 15.725C1.1574 15.7522 1.14209 15.7804 1.12839 15.8093C1.11982 15.8277 1.11192 15.8463 1.10471 15.8653C1.10086 15.8752 1.09678 15.885 1.09327 15.8952C1.08466 15.9201 1.07741 15.9455 1.07118 15.9711C1.07016 15.9751 1.0688 15.9791 1.06778 15.9832C1.061 16.0137 1.05585 16.0445 1.05237 16.0755C1.05215 16.0776 1.05158 16.0795 1.05135 16.0815C1.0253 16.3278 0.433858 22.1858 2.29507 28.5823C3.2378 31.8223 5.27607 34.556 8.0433 36.3781C7.03215 36.886 6.33626 37.9325 6.33626 39.1389C6.33626 40.7378 7.55766 42.0566 9.11641 42.2115L10.9414 52.0246C11.5853 55.487 14.6087 58 18.1305 58H29.8693C33.391 58 36.4144 55.487 37.0584 52.0245L38.8805 42.2268H39.932C41.6347 42.2268 43.02 40.8415 43.02 39.1388C43.02 37.5894 41.8729 36.3034 40.3835 36.0842C42.9331 34.2679 44.8114 31.6529 45.7049 28.5823ZM39.7277 18.7167C38.3348 19.5478 36.6754 20.5676 34.7253 21.8095L34.6729 21.8429C34.4422 21.9898 34.208 22.1397 33.9692 22.2928L33.9326 22.3163C33.9274 22.2513 33.9213 22.1865 33.9157 22.1216C33.9014 21.9491 33.8859 21.7768 33.8694 21.6045C35.8427 17.4553 38.0838 12.9595 40.546 8.21051C40.952 10.4241 41.2086 14.2024 39.7277 18.7167ZM38.9227 7.64932C36.9503 11.4582 35.12 15.1041 33.4559 18.5393C33.1431 16.7443 32.7262 15.0766 32.2422 13.5387C34.5695 10.4383 37.1457 8.62954 38.9227 7.64932ZM30.4705 13.5725C30.4764 13.5991 30.4828 13.6257 30.4914 13.652C31.4174 16.4777 32.0052 19.4544 32.2438 22.5184L32.2491 22.5892C32.2625 22.765 32.2745 22.9412 32.2855 23.1174C32.2887 23.1679 32.2919 23.2185 32.2949 23.2691C32.2976 23.315 32.2995 23.3611 32.3021 23.4071C29.5565 25.4068 27.3047 28.116 25.5694 31.5005L25.5569 31.5246C25.4906 31.6543 25.4252 31.7846 25.3608 31.9153L25.3289 31.9805C25.2671 32.1067 25.2062 32.2333 25.1462 32.3603C25.1355 32.3827 25.1252 32.4053 25.1147 32.4279C25.0243 32.6209 24.936 32.8148 24.8497 33.0096V3.07241C25.6898 4.11222 26.7852 5.63291 27.8867 7.63697C28.9277 9.53223 29.7927 11.5191 30.4705 13.5725ZM17.5086 13.652C17.5169 13.6258 17.5239 13.5993 17.5296 13.5725C18.2074 11.5191 19.0723 9.53223 20.1134 7.63697C21.2147 5.6328 22.3103 4.11211 23.1505 3.0723V33.0095C23.0641 32.8143 22.9756 32.6201 22.8851 32.4269C22.8748 32.4048 22.8646 32.3826 22.8541 32.3605C22.794 32.2332 22.733 32.1064 22.671 31.98L22.6394 31.9153C22.5749 31.7845 22.5095 31.6542 22.4432 31.5244L22.4307 31.5002C20.6953 28.1157 18.4435 25.4067 15.6979 23.4069C15.7005 23.3609 15.7025 23.3148 15.7052 23.2689C15.7081 23.2182 15.7114 23.1678 15.7146 23.1172C15.7257 22.9408 15.7376 22.7647 15.751 22.589L15.7563 22.5182C15.9947 19.4542 16.5827 16.4777 17.5086 13.652ZM15.7575 13.5387C15.2736 15.0766 14.8567 16.7444 14.5438 18.5394C12.8801 15.1048 11.0498 11.4589 9.07699 7.64932C10.8543 8.62954 13.4305 10.4383 15.7575 13.5387ZM7.45412 8.21062C9.91675 12.9605 12.1578 17.4564 14.1306 21.6048C14.114 21.777 14.0986 21.9493 14.0842 22.1217C14.0788 22.1866 14.0726 22.2514 14.0674 22.3164L14.031 22.2932C13.793 22.1405 13.5548 21.9881 13.3163 21.8362L13.2811 21.8138C11.3282 20.57 9.66662 19.5488 8.27213 18.7168C6.7912 14.2024 7.0479 10.4241 7.45412 8.21062ZM9.76653 21.6144L10.0107 21.7655C10.3386 21.9687 10.666 22.1728 10.9929 22.3778L11.3242 22.5858C11.5245 22.712 11.7265 22.8395 11.9299 22.9685L12.1476 23.1064C12.4496 23.2983 12.7512 23.4909 13.0524 23.6841C13.3181 23.8545 13.5854 24.0263 13.8555 24.2008C14.0189 24.307 14.1807 24.4157 14.3407 24.5269C17.7535 26.8936 20.382 30.4405 22.1724 35.0878C22.1835 35.1168 22.1943 35.1463 22.2054 35.1753C22.2565 35.3092 22.3072 35.4436 22.3571 35.5793C22.3796 35.641 22.4016 35.7036 22.4239 35.7657C22.458 35.8604 22.4921 35.955 22.5255 36.0506H21.495C15.7861 33.4405 10.9988 28.1322 7.97782 24.1181C6.28563 21.8697 4.94562 19.7685 4.03292 18.2381C5.35695 18.9686 7.24342 20.0562 9.76653 21.6144ZM3.92666 28.1076C2.94927 24.7482 2.6894 21.4933 2.65292 19.2475C3.57979 20.7932 4.91232 22.8687 6.60078 25.1143C10.2609 29.9826 14.0568 33.6467 17.9213 36.0507H11.0252C7.55494 34.5893 4.9727 31.7027 3.92666 28.1076ZM41.3209 39.1388C41.3209 39.9046 40.6979 40.5276 39.9321 40.5276H19.9217C19.6964 40.5276 19.4803 40.6171 19.321 40.7765C19.1616 40.9358 19.0721 41.1519 19.0721 41.3772C19.0721 41.6026 19.1616 41.8187 19.321 41.978C19.4803 42.1373 19.6964 42.2268 19.9217 42.2268H37.1519L35.3876 51.7139C34.8934 54.3717 32.5727 56.3008 29.8694 56.3008H18.1305C15.4272 56.3008 13.1063 54.3717 12.6122 51.7139L10.8478 42.2268H13.8423C14.0676 42.2268 14.2837 42.1373 14.443 41.978C14.6024 41.8187 14.6919 41.6026 14.6919 41.3772C14.6919 41.1519 14.6024 40.9358 14.443 40.7765C14.2837 40.6171 14.0676 40.5276 13.8423 40.5276H9.42431C8.65853 40.5276 8.03548 39.9046 8.03548 39.1388C8.03548 38.373 8.65853 37.75 9.42431 37.75H39.932C40.6979 37.75 41.3209 38.373 41.3209 39.1388ZM36.9748 36.0507H30.0765C33.6932 33.7987 37.258 30.437 40.7077 26.017C40.7764 25.929 40.827 25.8284 40.8568 25.7209C40.8866 25.6133 40.8949 25.501 40.8812 25.3902C40.8676 25.2795 40.8322 25.1725 40.7772 25.0755C40.7222 24.9784 40.6487 24.8931 40.5607 24.8245C40.383 24.6859 40.1576 24.6236 39.934 24.6511C39.7104 24.6787 39.507 24.7939 39.3683 24.9715C35.1893 30.3256 30.8714 34.0494 26.534 36.0395C26.5265 36.0429 26.5196 36.0472 26.5122 36.0509H25.4746C25.508 35.9552 25.5421 35.8607 25.5762 35.7659C25.5985 35.7039 25.6204 35.6412 25.643 35.5795C25.6927 35.4438 25.7435 35.3094 25.7947 35.1755C25.8058 35.1465 25.8166 35.117 25.8277 35.0881C27.6181 30.4407 30.2463 26.8941 33.6591 24.5273C34.0871 24.2456 34.516 23.965 34.9456 23.6857L35.1247 23.5709C35.3684 23.4149 35.6101 23.2607 35.8499 23.1084L36.0771 22.9643C36.2738 22.8397 36.4691 22.7163 36.663 22.5942C36.7821 22.5193 36.8993 22.4455 37.016 22.3725C37.3515 22.1621 37.6875 21.9527 38.0242 21.7442L38.2249 21.62C40.7536 20.058 42.6436 18.9685 43.9694 18.2372C43.5987 18.8588 43.2177 19.4743 42.8266 20.0834C42.7652 20.1773 42.723 20.2824 42.7024 20.3927C42.6818 20.503 42.6833 20.6163 42.7067 20.726C42.7301 20.8358 42.7751 20.9398 42.8389 21.032C42.9027 21.1243 42.9842 21.203 43.0787 21.2636C43.1731 21.3242 43.2786 21.3655 43.3891 21.3851C43.4995 21.4047 43.6128 21.4023 43.7223 21.3779C43.8318 21.3535 43.9354 21.3076 44.0271 21.243C44.1188 21.1783 44.1968 21.0962 44.2566 21.0012C44.6294 20.4205 44.9935 19.8342 45.3486 19.2425C45.3128 21.4857 45.0533 24.7397 44.0733 28.1078C43.0273 31.7027 40.445 34.5893 36.9748 36.0507Z" fill="#31815E"/>
</svg>
